<svg width="25" height="25" viewBox="0 0 25 25" fill="none" xmlns="http://www.w3.org/2000/svg">
<path d="M24.6282 5.14272C23.7584 5.52813 22.824 5.78855 21.8417 5.90626C22.8552 5.29979 23.6135 4.34529 23.975 3.22084C23.0228 3.78646 21.9806 4.18459 20.8938 4.39793C20.1629 3.61758 19.1949 3.10035 18.14 2.92654C17.085 2.75274 16.0022 2.93208 15.0597 3.43673C14.1171 3.94138 13.3675 4.74309 12.9273 5.71741C12.487 6.69172 12.3808 7.78412 12.625 8.82501C10.6955 8.72813 8.80798 8.22662 7.08485 7.35303C5.36172 6.47945 3.84153 5.2533 2.62295 3.75418C2.20628 4.47293 1.9667 5.30626 1.9667 6.19376C1.96623 6.99271 2.16298 7.77943 2.53949 8.48411C2.916 9.18878 3.46062 9.78963 4.12503 10.2333C3.35449 10.2088 2.60094 10.0006 1.92712 9.62605V9.68855C1.92704 10.8091 2.31465 11.8952 3.02418 12.7625C3.73371 13.6298 4.72146 14.2249 5.81982 14.4469C5.10502 14.6403 4.35559 14.6688 3.62816 14.5302C3.93805 15.4944 4.54169 16.3375 5.35458 16.9416C6.16747 17.5457 7.1489 17.8804 8.16149 17.899C6.44257 19.2484 4.31971 19.9803 2.13441 19.9771C1.7473 19.9772 1.36053 19.9546 0.976074 19.9094C3.19428 21.3356 5.77643 22.0925 8.41357 22.0896C17.3407 22.0896 22.2209 14.6958 22.2209 8.28334C22.2209 8.07501 22.2157 7.86459 22.2063 7.65626C23.1555 6.96977 23.9749 6.11969 24.6261 5.14584L24.6282 5.14272Z" fill="#009DAE"/>
</svg>
