<svg width="40" height="40" viewBox="0 0 40 40" fill="none" xmlns="http://www.w3.org/2000/svg">
<path d="M23.2859 12.0792L33.4433 12.18C34.0515 12.2544 34.6172 12.5302 35.0504 12.9635C35.4835 13.3968 35.7592 13.9627 35.8333 14.5708V32.9383C35.8271 33.5747 35.5715 34.1832 35.1215 34.6331C34.6715 35.0831 34.063 35.3387 33.4267 35.345H9.73835C9.43288 35.3477 9.12987 35.2903 8.84663 35.1759C8.56339 35.0614 8.30547 34.8923 8.08761 34.6782C7.86976 34.464 7.69624 34.2091 7.57697 33.9278C7.4577 33.6466 7.39502 33.3446 7.39252 33.0392V32.995L7.42502 22.7083C8.74752 23.9058 10.335 23.2325 10.4642 26.0983V28.8108H19.2992L19.3075 22.7042C21.0303 21.5006 22.2778 19.7324 22.8342 17.7058C23.2533 15.8242 22.3225 12.0875 23.2859 12.0792V12.0792Z" stroke="white" stroke-width="0.833333" stroke-linecap="round" stroke-linejoin="round"/>
<path d="M27.5083 14.3433H25.975C25.9382 14.3433 25.9083 14.3732 25.9083 14.41V15.9433C25.9083 15.9801 25.9382 16.01 25.975 16.01H27.5083C27.5451 16.01 27.575 15.9801 27.575 15.9433V14.41C27.575 14.3732 27.5451 14.3433 27.5083 14.3433Z" stroke="white" stroke-width="0.833333" stroke-linecap="round" stroke-linejoin="round"/>
<path d="M32.6233 14.3958H31.09C31.0532 14.3958 31.0233 14.4257 31.0233 14.4625V15.9958C31.0233 16.0326 31.0532 16.0625 31.09 16.0625H32.6233C32.6601 16.0625 32.69 16.0326 32.69 15.9958V14.4625C32.69 14.4257 32.6601 14.3958 32.6233 14.3958Z" stroke="white" stroke-width="0.833333" stroke-linecap="round" stroke-linejoin="round"/>
<path d="M32.6233 31.4667H31.09C31.0532 31.4667 31.0233 31.4965 31.0233 31.5333V33.0667C31.0233 33.1035 31.0532 33.1333 31.09 33.1333H32.6233C32.6601 33.1333 32.69 33.1035 32.69 33.0667V31.5333C32.69 31.4965 32.6601 31.4667 32.6233 31.4667Z" stroke="white" stroke-width="0.833333" stroke-linecap="round" stroke-linejoin="round"/>
<path d="M27.3108 31.4783H25.7775C25.7407 31.4783 25.7108 31.5082 25.7108 31.545V33.0783C25.7108 33.1152 25.7407 33.145 25.7775 33.145H27.3108C27.3476 33.145 27.3775 33.1152 27.3775 33.0783V31.545C27.3775 31.5082 27.3476 31.4783 27.3108 31.4783Z" stroke="white" stroke-width="0.833333" stroke-linecap="round" stroke-linejoin="round"/>
<path d="M22.4417 31.5267H20.9083C20.8715 31.5267 20.8417 31.5565 20.8417 31.5933V33.1267C20.8417 33.1635 20.8715 33.1933 20.9083 33.1933H22.4417C22.4785 33.1933 22.5083 33.1635 22.5083 33.1267V31.5933C22.5083 31.5565 22.4785 31.5267 22.4417 31.5267Z" stroke="white" stroke-width="0.833333" stroke-linecap="round" stroke-linejoin="round"/>
<path d="M17.2542 31.41H15.7208C15.684 31.41 15.6542 31.4398 15.6542 31.4766V33.01C15.6542 33.0468 15.684 33.0766 15.7208 33.0766H17.2542C17.291 33.0766 17.3208 33.0468 17.3208 33.01V31.4766C17.3208 31.4398 17.291 31.41 17.2542 31.41Z" stroke="white" stroke-width="0.833333" stroke-linecap="round" stroke-linejoin="round"/>
<path d="M12.0908 31.4258H10.5575C10.5207 31.4258 10.4908 31.4557 10.4908 31.4925V33.0258C10.4908 33.0627 10.5207 33.0925 10.5575 33.0925H12.0908C12.1277 33.0925 12.1575 33.0627 12.1575 33.0258V31.4925C12.1575 31.4557 12.1277 31.4258 12.0908 31.4258Z" stroke="white" stroke-width="0.833333" stroke-linecap="round" stroke-linejoin="round"/>
<path d="M5.88086 7.60084C5.9417 7.35917 6.65086 6.60584 6.92086 6.61334C7.60662 6.76314 8.30331 6.85761 9.0042 6.89584C9.27503 6.75417 9.12586 5.34834 9.37586 5.22667C9.6292 4.96917 10.77 4.52584 10.9034 4.69084C11.355 5.11834 12.0517 6.02917 12.415 6.02917C12.7692 6.0175 13.6284 4.69584 14.0267 4.76334C14.4884 4.8035 14.9337 4.95412 15.325 5.2025C15.5667 5.43667 15.3084 6.91167 15.68 7.03667C16.115 7.17 17.8967 6.525 18.0092 6.66167C18.1709 6.82334 18.8275 7.45584 18.8192 7.67834C18.8192 8.02 18.1142 9.37 18.4284 9.48334C18.525 9.745 19.92 10.1483 20.2342 10.3667C20.5167 10.6083 20.9117 11.1317 20.7867 11.4983C20.7617 11.9383 19.4609 12.9133 19.5167 13.26C19.5692 13.615 20.6009 14.445 20.605 14.715C20.6092 14.9367 20.5567 15.8758 20.3025 15.965C20.0084 16.2067 18.3117 16.4 18.3234 16.6658C18.2392 16.9483 18.9609 17.9442 18.795 18.3267C18.6909 18.6692 18.32 19.5483 18.0292 19.6008C17.7034 19.6925 16.3409 19.3142 16.1234 19.4633C15.74 19.6775 15.4942 21.1683 15.325 21.2217C15.0123 21.4231 14.6377 21.5059 14.2692 21.455C14.0109 21.4267 12.9309 20.2858 12.4275 20.3017C12.1734 20.3542 11.3392 21.4433 11.0409 21.4067C10.7743 21.45 10.5017 21.4395 10.2392 21.3758C9.97671 21.3121 9.72963 21.1965 9.51253 21.0358C9.2142 20.7942 9.4242 19.54 9.0292 19.2092C8.6667 18.9517 7.4167 19.75 7.1067 19.5317C6.54253 19.3183 5.97336 18.9675 5.9942 18.6292C5.97753 18.3067 6.6067 16.8958 6.3167 16.6375C6.0142 16.3642 4.70836 16.465 4.6517 16.1742C4.43432 15.6609 4.27229 15.1259 4.16836 14.5783C4.12003 14.2033 5.64336 13.5058 5.64753 13.1875C5.63503 12.8775 4.2767 12.0833 4.26086 11.7533C4.22563 11.2809 4.32167 10.8079 4.53836 10.3867C4.7717 10.0717 6.05836 10.1158 6.3442 9.83417C6.52586 9.64834 5.67086 7.85917 5.88086 7.605V7.60084Z" stroke="white" stroke-width="0.833333" stroke-linecap="round" stroke-linejoin="round"/>
<path d="M7.94084 13.6633C7.84751 13.4817 7.79084 10.8258 8.35584 10.8383C8.63921 10.8666 8.91074 10.9664 9.14487 11.1285C9.379 11.2907 9.56804 11.5097 9.69417 11.765C9.8022 12.4174 9.71673 13.0872 9.44834 13.6917C9.38711 13.8433 9.28129 13.9727 9.14489 14.0629C9.00848 14.1531 8.84791 14.1997 8.68442 14.1967C8.52093 14.1936 8.36223 14.141 8.2293 14.0457C8.09638 13.9505 7.9955 13.8171 7.94001 13.6633H7.94084ZM10.6742 8.76583C11.5463 8.5065 12.4621 8.42711 13.3658 8.5325C13.62 8.70167 13.0158 10.1692 12.7208 10.3867C12.4592 10.6567 11.1375 10.3267 10.8908 10.1817C9.69834 9.49583 10.3917 9.065 10.6742 8.76583V8.76583ZM15.6917 9.72167C16.7233 10.6642 17.485 12.3617 17.1833 12.5183C15.5467 13.0433 14.95 11.9225 14.6883 10.6442C14.6275 10.12 15.5225 9.56417 15.6967 9.7175L15.6917 9.72167ZM16.385 15.6825C15.8086 16.4366 15.0592 17.0408 14.2 17.4442C14.0613 17.1811 13.9837 16.89 13.9732 16.5928C13.9627 16.2955 14.0194 15.9998 14.1392 15.7275C14.3207 15.4397 14.5593 15.1921 14.8403 15.0001C15.1212 14.808 15.4384 14.6756 15.7725 14.6108C16.4417 14.4292 16.8442 15.1067 16.385 15.6825V15.6825ZM11.1567 17.7383C10.5683 17.7425 8.88751 16.6217 9.04501 16.3842C9.18851 16.1176 9.4072 15.8991 9.6739 15.7558C9.94059 15.6125 10.2435 15.5508 10.545 15.5783C10.8514 15.6236 11.1448 15.7331 11.4058 15.8997C11.6669 16.0663 11.8899 16.2862 12.06 16.545C12.56 17.13 11.9792 17.7342 11.1575 17.7383H11.1567Z" stroke="white" stroke-width="0.833333" stroke-linecap="round" stroke-linejoin="round"/>
<path d="M12.4308 14.1392C12.9808 14.1392 13.4267 13.6933 13.4267 13.1434C13.4267 12.5934 12.9808 12.1475 12.4308 12.1475C11.8808 12.1475 11.435 12.5934 11.435 13.1434C11.435 13.6933 11.8808 14.1392 12.4308 14.1392Z" stroke="white" stroke-width="0.833333" stroke-linecap="round" stroke-linejoin="round"/>
<path d="M24.8334 18.0933H31.4684C31.7661 18.0682 32.0617 18.161 32.2916 18.3518C32.5216 18.5426 32.6673 18.8161 32.6975 19.1133V27.9125C32.6671 28.2098 32.5212 28.4832 32.2911 28.6738C32.061 28.8644 31.7652 28.957 31.4675 28.9317H24.8334C24.5358 28.9568 24.2402 28.8641 24.0103 28.6735C23.7804 28.4829 23.6346 28.2096 23.6042 27.9125V19.1125C23.6346 18.8154 23.7804 18.5421 24.0103 18.3515C24.2402 18.1609 24.5358 18.0682 24.8334 18.0933Z" stroke="white" stroke-width="0.833333" stroke-linecap="round" stroke-linejoin="round"/>
</svg>
