<svg width="40" height="40" viewBox="0 0 40 40" fill="none" xmlns="http://www.w3.org/2000/svg">
<path d="M29.1667 6.66665C25.95 6.66665 23.3334 9.28331 23.3334 12.5C23.3334 15.09 25.0417 17.265 27.3834 18.025C27.14 19.5783 26.4717 20.8583 25.3334 21.8966C22.09 24.8516 16.1217 25.1216 13.3334 25.075V14.7283C15.7334 14.005 17.5 11.8 17.5 9.16665C17.5 5.94998 14.8834 3.33331 11.6667 3.33331C8.45004 3.33331 5.83337 5.94998 5.83337 9.16665C5.83337 11.8 7.60004 14.005 10 14.7283V25.2716C7.60004 25.995 5.83337 28.2 5.83337 30.8333C5.83337 34.05 8.45004 36.6666 11.6667 36.6666C14.8834 36.6666 17.5 34.05 17.5 30.8333C17.5 29.915 17.2667 29.0583 16.8884 28.285C20.3217 27.975 24.65 27.0233 27.57 24.3683C29.3984 22.7066 30.455 20.595 30.7434 18.0883C33.1917 17.3966 35 15.1666 35 12.5C35 9.28331 32.3834 6.66665 29.1667 6.66665ZM9.16671 9.16665C9.16671 7.78831 10.2884 6.66665 11.6667 6.66665C13.045 6.66665 14.1667 7.78831 14.1667 9.16665C14.1667 10.545 13.045 11.6666 11.6667 11.6666C10.2884 11.6666 9.16671 10.545 9.16671 9.16665ZM11.6667 33.3333C10.2884 33.3333 9.16671 32.2116 9.16671 30.8333C9.16754 30.176 9.42719 29.5455 9.88947 29.0782C10.3518 28.6109 10.9795 28.3445 11.6367 28.3366L11.8534 28.3533C12.1804 28.3656 12.5017 28.4421 12.7992 28.5786C13.0966 28.715 13.3642 28.9087 13.5867 29.1486C13.8093 29.3885 13.9824 29.6699 14.0962 29.9767C14.21 30.2834 14.2623 30.6097 14.25 30.9366C14.2378 31.2636 14.1612 31.585 14.0248 31.8824C13.8883 32.1798 13.6946 32.4475 13.4547 32.67C13.2149 32.8926 12.9335 33.0657 12.6267 33.1795C12.3199 33.2933 11.9937 33.3456 11.6667 33.3333ZM29.1667 15C27.7884 15 26.6667 13.8783 26.6667 12.5C26.6667 11.1216 27.7884 9.99998 29.1667 9.99998C30.545 9.99998 31.6667 11.1216 31.6667 12.5C31.6667 13.8783 30.545 15 29.1667 15Z" fill="#FF4F6E"/>
</svg>
