<svg width="25" height="25" viewBox="0 0 25 25" fill="none" xmlns="http://www.w3.org/2000/svg">
<mask id="mask0_15_179" style="mask-type:alpha" maskUnits="userSpaceOnUse" x="1" y="1" width="23" height="23">
<path d="M4.68746 6.25001C5.83805 6.25001 6.77079 5.31727 6.77079 4.16668C6.77079 3.01608 5.83805 2.08334 4.68746 2.08334C3.53687 2.08334 2.60413 3.01608 2.60413 4.16668C2.60413 5.31727 3.53687 6.25001 4.68746 6.25001Z" fill="white" stroke="white" stroke-width="2.08333"/>
<path d="M2.60413 9.375H6.77079V22.3958H2.60413V9.375ZM10.9375 14.3229V22.3958H14.5833V15.1042C14.5833 13.8021 15.3645 12.7604 16.6666 12.7604C17.9687 12.7604 18.75 14.0625 18.75 15.1042V22.3958H22.3958V14.3229C22.3958 12.7604 20.5729 9.375 16.6666 9.375C12.7604 9.375 10.9375 12.7604 10.9375 14.3229Z" fill="white" stroke="white" stroke-width="2.08333" stroke-linejoin="round"/>
</mask>
<g mask="url(#mask0_15_179)">
<path d="M0 0H25V25H0V0Z" fill="#009DAE"/>
</g>
</svg>
